<svg width="170" height="65" viewBox="0 0 170 65" fill="none" xmlns="http://www.w3.org/2000/svg">
<path d="M24.0404 32.2414C24.0404 36.5517 20.6061 40 16.3131 40C12.0202 40 8.58586 36.5517 8.58586 32.2414C8.58586 27.931 12.0202 24.4828 16.3131 24.4828H24.0404V32.2414ZM32.6263 0.344828H24.0404V16.0345C21.1212 16.0345 18.202 16.0345 16.3131 16.0345C7.38384 16.0345 0.171715 23.2759 0.171715 32.2414C0.171715 41.2069 7.38384 48.4483 16.3131 48.4483C25.2424 48.4483 32.4545 41.2069 32.4545 32.2414C32.4545 27.7586 32.4545 16.0345 32.4545 16.0345L32.6263 0.344828Z" fill="#151515"/>
<path d="M117.97 40C122.263 40 125.697 36.5517 125.697 32.2414C125.697 27.931 122.263 24.4828 117.97 24.4828C113.677 24.4828 110.242 27.931 110.242 32.2414C110.414 36.5517 113.848 40 117.97 40ZM102 32.2414C102 23.2759 109.212 16.0345 118.141 16.0345C127.071 16.0345 134.283 23.2759 134.283 32.2414C134.283 41.2069 127.071 48.4483 118.141 48.4483C109.212 48.4483 102 41.2069 102 32.2414Z" fill="#151515"/>
<path d="M161.242 32.2414C161.242 28.1034 157.808 24.6552 153.687 24.6552C149.566 24.6552 146.131 28.1034 146.131 32.2414C146.131 34.3103 146.131 47.7586 146.131 47.7586C141.838 47.7586 137.717 47.7586 137.717 47.7586C137.717 47.7586 137.717 36.7241 137.717 32.2414C137.717 23.2759 144.929 16.0345 153.859 16.0345C162.788 16.0345 170 23.2759 170 32.2414C170 36.7241 170 47.7586 170 47.7586C170 47.7586 165.879 47.7586 161.586 47.7586C161.242 47.7586 161.242 34.3103 161.242 32.2414Z" fill="#151515"/>
<path d="M82.2525 26.7241C81.0505 25.8621 81.3939 24.4828 83.4545 23.9655C86.0303 23.2759 90.495 23.7931 94.2727 25.5172L98.2222 20C96.5051 18.6207 92.7273 16.7241 87.2323 16.3793C87.2323 16.3793 77.9596 15.1724 74.1818 22.2414C74.1818 22.2414 70.9192 28.7931 77.4444 32.931C81.3939 35.3448 88.2626 36.3793 90.4949 37.4138C92.2121 38.4483 91.697 40.3448 89.1212 40.8621C84.6566 41.8966 78.8182 39.3103 76.9293 37.931L72.8081 43.6207C75.5556 45.6897 78.9899 47.5862 84.4848 48.4483C84.4848 48.4483 93.2424 50 98.0505 43.9655C98.9091 42.931 102.859 35.5172 94.9596 31.2069C90.8384 28.9655 84.3131 27.931 82.2525 26.7241Z" fill="#151515"/>
<path d="M42.7576 53.9655C43.101 54.1379 47.0505 56.8965 50.8283 56.8965C60.101 57.069 60.6162 47.4138 60.6162 45.1724C58.899 47.069 55.2929 48.2759 53.0606 48.2759C44.1313 48.2759 37.0909 41.3793 37.0909 32.4138C37.0909 27.931 37.0909 16.7241 37.0909 16.7241C37.0909 16.7241 41.2121 16.7241 45.5051 16.7241C45.5051 16.7241 45.5051 30.5172 45.5051 32.4138C45.5051 36.5517 48.9394 40 53.0606 40C57.1818 40 60.6162 36.5517 60.6162 32.4138C60.6162 30.6897 60.6162 16.7241 60.6162 16.7241C64.9091 16.7241 69.0303 16.7241 69.0303 16.7241V32.4138C69.0303 46.3793 69.7172 60.6896 56.1515 63.9655C46.0202 66.3793 38.8081 60 38.2929 59.6552L42.7576 53.9655Z" fill="#151515"/>
</svg>
