<svg width="32" height="28" viewBox="0 0 32 28" fill="none" xmlns="http://www.w3.org/2000/svg">
<path d="M28.3201 2.93823C27.5769 2.19501 26.6945 1.60553 25.7234 1.20348C24.7522 0.801432 23.7114 0.594699 22.6603 0.595093C21.6092 0.595488 20.5685 0.803003 19.5977 1.20578C18.6268 1.60856 17.7449 2.1987 17.0022 2.94248L16.0328 3.92373L15.0714 2.9446L15.0651 2.93835C14.3223 2.19548 13.4404 1.6062 12.4697 1.20416C11.4991 0.802116 10.4588 0.595188 9.40826 0.595188C8.35768 0.595188 7.31739 0.802116 6.34678 1.20416C5.37617 1.6062 4.49426 2.19548 3.75139 2.93835L3.31951 3.37023C1.81923 4.87052 0.976379 6.90534 0.976379 9.02707C0.976379 11.1488 1.81923 13.1836 3.31951 14.6839L14.7178 26.0821L16.005 27.4307L16.0357 27.4L16.069 27.4333L17.275 26.1608L28.752 14.6837C30.2501 13.1822 31.0914 11.1479 31.0914 9.02688C31.0914 6.9059 30.2501 4.87152 28.752 3.37004L28.3201 2.93823Z" fill="#A3A3A3"/>
</svg>
