<svg width="32" height="28" viewBox="0 0 32 28" fill="none" xmlns="http://www.w3.org/2000/svg">
<path d="M28.3201 2.93823C27.5769 2.19501 26.6945 1.60553 25.7234 1.20348C24.7522 0.801432 23.7114 0.594699 22.6603 0.595093C21.6092 0.595488 20.5685 0.803003 19.5977 1.20578C18.6268 1.60856 17.7449 2.1987 17.0022 2.94248L16.0328 3.92373L15.0714 2.9446L15.0651 2.93835C14.3223 2.19548 13.4404 1.6062 12.4697 1.20416C11.4991 0.802116 10.4588 0.595188 9.40826 0.595188C8.35768 0.595188 7.31739 0.802116 6.34678 1.20416C5.37617 1.6062 4.49426 2.19548 3.75139 2.93835L3.31951 3.37023C1.81923 4.87052 0.976379 6.90535 0.976379 9.02707C0.976379 11.1488 1.81923 13.1836 3.31951 14.6839L14.7178 26.0821L16.005 27.4307L16.0357 27.4L16.069 27.4333L17.275 26.1608L28.752 14.6837C30.2501 13.1822 31.0914 11.1479 31.0914 9.02688C31.0914 6.9059 30.2501 4.87152 28.752 3.37004L28.3201 2.93823ZM27.3375 13.2695L16.0357 24.5716L4.73364 13.2695C3.60843 12.1443 2.9763 10.6182 2.9763 9.02691C2.9763 7.43562 3.60843 5.90951 4.73364 4.78429L5.16558 4.35242C6.29024 3.22776 7.81544 2.59567 9.40595 2.59507C10.9965 2.59447 12.5221 3.22542 13.6476 4.34923L16.0285 6.77342L18.4206 4.35242C18.9777 3.79526 19.6392 3.3533 20.3671 3.05177C21.0951 2.75024 21.8753 2.59504 22.6632 2.59504C23.4512 2.59504 24.2314 2.75024 24.9593 3.05177C25.6873 3.3533 26.3487 3.79526 26.9059 4.35242L27.3378 4.78423C28.4613 5.91037 29.0922 7.43619 29.0922 9.02693C29.0921 10.6177 28.4611 12.1435 27.3375 13.2695Z" fill="#A3A3A3"/>
</svg>
