<svg width="39" height="35" viewBox="0 0 39 35" fill="none" xmlns="http://www.w3.org/2000/svg">
<path d="M34.4456 4.23052L34.4455 4.23047C33.6095 3.39443 32.6169 2.73134 31.5245 2.27909C30.4321 1.82683 29.2612 1.59428 28.0789 1.59473C26.8966 1.59517 25.7259 1.8286 24.6338 2.28167C23.5426 2.73442 22.5511 3.39762 21.7161 4.23342C21.7155 4.23403 21.7149 4.23464 21.7143 4.23525L20.5063 5.45792L19.7927 6.18019L19.0814 5.45572L17.883 4.23522L17.8784 4.23062C17.8784 4.23061 17.8784 4.2306 17.8784 4.23059C17.0428 3.39496 16.0507 2.7321 14.9589 2.27986C13.8671 1.82761 12.6969 1.59485 11.5151 1.59485C10.3334 1.59485 9.16316 1.82761 8.07135 2.27986C6.97953 2.73211 5.98748 3.39498 5.15185 4.23062L4.44474 3.52351L5.15185 4.23062L4.61206 4.77041C2.92442 6.45805 1.97632 8.74698 1.97632 11.1337C1.97632 13.5203 2.92442 15.8093 4.61206 17.4969L18.8585 31.7432L18.8668 31.7515L18.8748 31.7599L19.7762 32.7043L19.7979 32.6826L19.8211 32.7057L20.6218 31.8609L20.631 31.8511L20.6405 31.8417L34.9845 17.4975L34.4456 4.23052ZM34.4456 4.23052L34.9845 4.76936C34.9848 4.76963 34.985 4.76989 34.9853 4.77016C34.9853 4.77018 34.9854 4.7702 34.9854 4.77023C36.6702 6.45934 37.6163 8.74769 37.6163 11.1334C37.6163 13.5192 36.6701 15.8076 34.9853 17.4967L34.4456 4.23052Z" fill="#E92121" stroke="#E92121" stroke-width="2"/>
</svg>
