<svg width="40" height="40" viewBox="0 0 40 40" fill="none" xmlns="http://www.w3.org/2000/svg">
<g clip-path="url(#clip0_293_379)">
<path d="M29.1668 39.9997C23.1935 39.9997 18.3335 35.1397 18.3335 29.1663C18.3335 23.193 23.1935 18.333 29.1668 18.333C35.1401 18.333 40.0001 23.193 40.0001 29.1663C40.0001 35.1397 35.1401 39.9997 29.1668 39.9997ZM29.1668 19.9997C24.1118 19.9997 20.0002 24.113 20.0002 29.1663C20.0002 34.2197 24.1118 38.333 29.1668 38.333C34.2218 38.333 38.3335 34.2197 38.3335 29.1663C38.3335 24.113 34.2218 19.9997 29.1668 19.9997Z" fill="#292929"/>
<path d="M27.5001 33.3337C27.2801 33.3337 27.0668 33.2453 26.9101 33.0903L23.5768 29.757C23.2518 29.432 23.2518 28.9037 23.5768 28.5787C23.9018 28.2537 24.4301 28.2537 24.7551 28.5787L27.4584 31.282L32.7051 25.2853C33.0084 24.937 33.5351 24.9037 33.8818 25.207C34.2284 25.5103 34.2634 26.0353 33.9601 26.382L28.1268 33.0487C27.9751 33.222 27.7568 33.3253 27.5268 33.3337C27.5184 33.3337 27.5084 33.3337 27.5001 33.3337Z" fill="#292929"/>
<path d="M15.8333 35H4.16667C1.87 35 0 33.1317 0 30.8333V9.16667C0 6.86833 1.87 5 4.16667 5H7.5C7.96 5 8.33333 5.37333 8.33333 5.83333C8.33333 6.29333 7.96 6.66667 7.5 6.66667H4.16667C2.78833 6.66667 1.66667 7.78833 1.66667 9.16667V30.8333C1.66667 32.2117 2.78833 33.3333 4.16667 33.3333H15.8333C16.2933 33.3333 16.6667 33.7067 16.6667 34.1667C16.6667 34.6267 16.2933 35 15.8333 35Z" fill="#292929"/>
<path d="M27.5 15C27.04 15 26.6667 14.6267 26.6667 14.1667V9.16667C26.6667 7.78833 25.545 6.66667 24.1667 6.66667H20.8333C20.3733 6.66667 20 6.29333 20 5.83333C20 5.37333 20.3733 5 20.8333 5H24.1667C26.4633 5 28.3333 6.86833 28.3333 9.16667V14.1667C28.3333 14.6267 27.96 15 27.5 15Z" fill="#292929"/>
<path d="M19.1665 10H9.1665C7.78817 10 6.6665 8.87833 6.6665 7.5V4.16667C6.6665 3.70667 7.03984 3.33333 7.49984 3.33333H10.0832C10.4715 1.43333 12.1532 0 14.1665 0C16.1798 0 17.8615 1.43333 18.2498 3.33333H20.8332C21.2932 3.33333 21.6665 3.70667 21.6665 4.16667V7.5C21.6665 8.87833 20.5448 10 19.1665 10ZM8.33317 5V7.5C8.33317 7.95833 8.7065 8.33333 9.1665 8.33333H19.1665C19.6265 8.33333 19.9998 7.95833 19.9998 7.5V5H17.4998C17.0398 5 16.6665 4.62667 16.6665 4.16667C16.6665 2.78833 15.5448 1.66667 14.1665 1.66667C12.7882 1.66667 11.6665 2.78833 11.6665 4.16667C11.6665 4.62667 11.2932 5 10.8332 5H8.33317Z" fill="#292929"/>
<path d="M22.5 14.9997H5.83333C5.37333 14.9997 5 14.6263 5 14.1663C5 13.7063 5.37333 13.333 5.83333 13.333H22.5C22.96 13.333 23.3333 13.7063 23.3333 14.1663C23.3333 14.6263 22.96 14.9997 22.5 14.9997Z" fill="#292929"/>
<path d="M17.5 19.9997H5.83333C5.37333 19.9997 5 19.6263 5 19.1663C5 18.7063 5.37333 18.333 5.83333 18.333H17.5C17.96 18.333 18.3333 18.7063 18.3333 19.1663C18.3333 19.6263 17.96 19.9997 17.5 19.9997Z" fill="#292929"/>
<path d="M14.1667 24.9997H5.83333C5.37333 24.9997 5 24.6263 5 24.1663C5 23.7063 5.37333 23.333 5.83333 23.333H14.1667C14.6267 23.333 15 23.7063 15 24.1663C15 24.6263 14.6267 24.9997 14.1667 24.9997Z" fill="#292929"/>
</g>
<defs>
<clipPath id="clip0_293_379">
<rect width="40" height="40" fill="white"/>
</clipPath>
</defs>
</svg>
