<svg width="40" height="40" viewBox="0 0 40 40" fill="none" xmlns="http://www.w3.org/2000/svg">
<g clip-path="url(#clip0_293_393)">
<path d="M24.5243 16.2842L18.5143 21.9608L15.63 18.9934C15.3102 18.6642 14.7837 18.6567 14.4548 18.9765C14.1256 19.2966 14.1181 19.8228 14.4379 20.152L17.8973 23.7032C18.2187 24.0265 18.738 24.0376 19.0728 23.728L25.6832 17.4929C25.8438 17.3415 25.9375 17.1325 25.9437 16.912C25.9499 16.6916 25.8682 16.4776 25.7164 16.3174C25.3947 15.983 24.8643 15.9684 24.5243 16.2842Z" fill="#292929"/>
<path d="M20.0644 7.54785C13.1957 7.54785 7.6106 13.1329 7.6106 20.0016C7.6106 26.8706 13.1957 32.4557 20.0644 32.4557C26.9334 32.4557 32.5184 26.8706 32.5184 20.0016C32.5184 13.1329 26.9334 7.54785 20.0644 7.54785ZM20.0644 30.7885C14.1126 30.7885 9.27778 25.9452 9.27778 20.0016C9.27778 14.058 14.1126 9.21504 20.0644 9.21504C26.022 9.21504 30.8513 14.0443 30.8513 20.0016C30.8513 25.9589 26.022 30.7885 20.0644 30.7885Z" fill="#292929"/>
<path d="M37.2033 15.4173L37.4784 10.4741C37.4976 10.1423 37.3173 9.83063 37.02 9.68215L32.6185 7.45651L30.3929 3.05507C30.2415 2.76038 29.9318 2.58097 29.601 2.5966L24.6492 2.86361L20.5229 0.137494C20.2448 -0.0458314 19.8844 -0.0458314 19.606 0.137494L15.4797 2.86361L10.5367 2.58846C10.2046 2.56892 9.8933 2.74931 9.74481 3.04693L7.51885 7.44837L3.11774 9.674C2.82272 9.82509 2.64363 10.1348 2.65926 10.4659L2.93408 15.4092L0.208295 19.5355C0.0249694 19.8136 0.0249694 20.174 0.208295 20.4524L2.92594 24.5869L2.65079 29.5301C2.63158 29.862 2.81165 30.1736 3.10927 30.3221L7.51071 32.5477L9.73635 36.9491C9.88743 37.2441 10.1971 37.4232 10.5283 37.4076L15.4715 37.1325L19.5978 39.8582C19.8743 40.0474 20.2383 40.0474 20.5148 39.8582L24.6411 37.1325L29.5844 37.4076C29.9162 37.4268 30.2275 37.2464 30.3763 36.9491L32.6019 32.5477L37.0034 30.3221C37.298 30.1706 37.4775 29.8613 37.4618 29.5301L37.1867 24.5869L39.9125 20.4606C40.0958 20.1825 40.0958 19.8217 39.9125 19.5436L37.2033 15.4173ZM35.6527 23.9034C35.5511 24.0525 35.5039 24.2319 35.5195 24.412L35.7777 29.0883L31.6182 31.1889C31.4596 31.2683 31.331 31.3973 31.2515 31.5558L29.1506 35.7154L24.4744 35.4571C24.2953 35.4506 24.1185 35.4969 23.9657 35.5903L20.0645 38.1663L16.1635 35.5903C16.028 35.4988 15.8685 35.4493 15.705 35.4487H15.6633L10.9867 35.7072L8.88614 31.5474C8.80669 31.3888 8.67807 31.2602 8.51917 31.1807L4.35119 29.0883L4.60974 24.412C4.61625 24.2329 4.56969 24.0561 4.47623 23.9034L1.90056 20.0021L4.47623 16.1008C4.57815 15.952 4.62537 15.7723 4.60974 15.5925L4.35119 10.9159L8.51103 8.81534C8.66961 8.73589 8.79823 8.60726 8.87768 8.44869L10.9783 4.28886L15.6549 4.5474C15.8336 4.55359 16.0104 4.50735 16.1635 4.4139L20.0645 1.83822L23.9657 4.4139C24.1149 4.51582 24.2946 4.56303 24.4744 4.5474L29.1506 4.28886L31.2515 8.44869C31.331 8.60726 31.4596 8.73589 31.6182 8.81534L35.7777 10.9159L35.5195 15.5925C35.513 15.7713 35.5595 15.9481 35.6527 16.1008L38.2287 20.0021L35.6527 23.9034Z" fill="#292929"/>
</g>
<defs>
<clipPath id="clip0_293_393">
<rect width="40" height="40" fill="white"/>
</clipPath>
</defs>
</svg>
