<svg width="40" height="40" viewBox="0 0 40 40" fill="none" xmlns="http://www.w3.org/2000/svg">
<path d="M39.5947 11.928L26.1572 4.54948C25.9232 4.42101 25.6393 4.42101 25.4053 4.54948L20.3522 7.32414C20.238 7.35588 20.1315 7.41417 20.0412 7.49474L11.9678 11.928C11.7178 12.0654 11.5625 12.3278 11.5625 12.6128V14.2101H2.54883C2.11731 14.2101 1.76758 14.5602 1.76758 14.9914C1.76758 15.4229 2.11731 15.7726 2.54883 15.7726H11.5625V18.5851H7.08344C6.65192 18.5851 6.30219 18.9352 6.30219 19.3664C6.30219 19.7979 6.65192 20.1476 7.08344 20.1476H11.5625V24.2101H5C4.56848 24.2101 4.21875 24.5602 4.21875 24.9914C4.21875 25.4229 4.56848 25.7726 5 25.7726H11.5625V27.3702C11.5625 27.6553 11.7178 27.9177 11.9678 28.055L25.4053 35.4336C25.5225 35.498 25.6519 35.53 25.7812 35.53C25.9106 35.53 26.04 35.498 26.1572 35.4336L39.5947 28.055C39.8447 27.9177 40 27.6553 40 27.3702V23.8717C40 23.4405 39.6503 23.0904 39.2188 23.0904C38.7872 23.0904 38.4375 23.4405 38.4375 23.8717V26.9079L26.5625 33.4286V20.4537L30.3391 18.3801V21.6711C30.3391 21.9476 30.4849 22.2033 30.7227 22.3437C30.845 22.416 30.9827 22.4523 31.1203 22.4523C31.2497 22.4523 31.3794 22.4203 31.4969 22.3556L34.3765 20.7708C34.6259 20.6335 34.7809 20.3713 34.7809 20.0863V15.9411L38.4375 13.9333V17.6217C38.4375 18.0532 38.7872 18.4029 39.2188 18.4029C39.6503 18.4029 40 18.0532 40 17.6217V12.6128C40 12.3278 39.8447 12.0654 39.5947 11.928ZM25 33.4286L13.125 26.9079V13.9333L25 20.4537V33.4286ZM25.7812 19.1003L13.967 12.6128L17.6801 10.574L29.4946 17.0614L25.7812 19.1003ZM31.1179 16.17L19.3033 9.68254L20.5841 8.97942L32.3984 15.4668L31.1179 16.17ZM33.2184 19.6246L31.9016 20.3493V17.5222L33.2184 16.7989V19.6246ZM34.0216 14.5754L22.2073 8.088L25.7812 6.12572L37.5955 12.6128L34.0216 14.5754Z" fill="#292929"/>
<path d="M39.2188 19.9658C39.0134 19.9658 38.8116 20.0485 38.6664 20.1947C38.5211 20.34 38.4375 20.5408 38.4375 20.7471C38.4375 20.9525 38.5211 21.1542 38.6664 21.2994C38.8116 21.4447 39.0134 21.5283 39.2188 21.5283C39.4241 21.5283 39.6259 21.4447 39.7711 21.2994C39.9164 21.1542 40 20.9525 40 20.7471C40 20.5408 39.9164 20.34 39.7711 20.1947C39.6259 20.0485 39.4241 19.9658 39.2188 19.9658Z" fill="#292929"/>
<path d="M1.90094 24.21H0.78125C0.349731 24.21 0 24.56 0 24.9912C0 25.4227 0.349731 25.7725 0.78125 25.7725H1.90094C2.33246 25.7725 2.68219 25.4227 2.68219 24.9912C2.68219 24.56 2.33246 24.21 1.90094 24.21Z" fill="#292929"/>
<path d="M4.74023 19.3662C4.74023 19.1608 4.65662 18.9594 4.51105 18.8141C4.36578 18.6686 4.16437 18.585 3.95898 18.585C3.7533 18.585 3.55188 18.6686 3.40662 18.8141C3.26044 18.9594 3.17773 19.1608 3.17773 19.3662C3.17773 19.5719 3.26044 19.7733 3.40662 19.9186C3.55188 20.0638 3.7533 20.1475 3.95898 20.1475C4.16437 20.1475 4.36578 20.0641 4.51105 19.9186C4.65662 19.7733 4.74023 19.5719 4.74023 19.3662Z" fill="#292929"/>
</svg>
