<svg width="40" height="40" viewBox="0 0 40 40" fill="none" xmlns="http://www.w3.org/2000/svg">
<path d="M21.1719 18.8281H18.8281V17.0291C18.8281 15.7781 19.5013 14.6115 20.5851 13.9845C20.947 13.7752 21.1719 13.3859 21.1719 12.9688C21.1719 12.3226 20.6462 11.7969 20 11.7969C19.3538 11.7969 18.8281 12.3226 18.8281 12.9688H16.4844C16.4844 11.0302 18.0615 9.45312 20 9.45312C21.9385 9.45312 23.5156 11.0302 23.5156 12.9688C23.5156 14.2198 22.8424 15.3864 21.7587 16.0134C21.3967 16.2227 21.1719 16.612 21.1719 17.0291V18.8281Z" fill="#292929"/>
<path d="M18.8281 21.1719H21.1719V23.5156H18.8281V21.1719Z" fill="#292929"/>
<path d="M20 32.8906C15.1168 32.8906 10.6769 30.128 8.49414 25.7937C3.77141 25.3164 0 21.3501 0 16.4844C0 11.6227 3.76711 7.65297 8.49352 7.17516C10.693 2.7932 15.134 0 20 0C24.866 0 29.307 2.7932 31.5065 7.17516C36.2286 7.65258 40 11.6187 40 16.4844C40 21.3464 36.2326 25.316 31.5059 25.7937C29.3231 30.128 24.8832 32.8906 20 32.8906ZM20 2.34375C15.8277 2.34375 12.0337 4.86562 10.3345 8.76852L10.0358 9.45453L9.28773 9.47227C5.45883 9.56297 2.34375 12.7086 2.34375 16.4844C2.34375 20.2602 5.45883 23.4058 9.28773 23.4965L10.0358 23.5142L10.3345 24.2002C12.013 28.0557 15.807 30.5469 20 30.5469C24.193 30.5469 27.987 28.0557 29.6655 24.2002L29.9642 23.5142L30.7123 23.4965C34.5412 23.4058 37.6562 20.2602 37.6562 16.4844C37.6562 12.7086 34.5412 9.56297 30.7123 9.47227L29.9642 9.45453L29.6655 8.76852C27.9663 4.86562 24.1723 2.34375 20 2.34375Z" fill="#292929"/>
<path d="M8.28125 40C6.34273 40 4.76562 38.4229 4.76562 36.4844C4.76562 34.5459 6.34273 32.9688 8.28125 32.9688C10.2198 32.9688 11.7969 34.5459 11.7969 36.4844C11.7969 38.4229 10.2198 40 8.28125 40ZM8.28125 35.3125C7.63508 35.3125 7.10938 35.8382 7.10938 36.4844C7.10938 37.1305 7.63508 37.6562 8.28125 37.6562C8.92742 37.6562 9.45312 37.1305 9.45312 36.4844C9.45312 35.8382 8.92742 35.3125 8.28125 35.3125Z" fill="#292929"/>
</svg>
