<svg width="61" height="18" viewBox="0 0 61 18" fill="none" xmlns="http://www.w3.org/2000/svg">
<path fill-rule="evenodd" clip-rule="evenodd" d="M9.6915 1.95241C10.1711 1.94959 11.5963 1.82332 12.2 3.82745C12.6067 5.17745 13.2545 7.38881 14.1434 10.4615H14.5054C15.4587 7.22205 16.1136 5.01069 16.47 3.82745C17.08 1.80245 18.605 1.95245 19.215 1.95245L23.9213 1.95245V16.3524H19.1246V7.86628H18.8029L16.1289 16.3524H12.52L9.84598 7.85999H9.52432V16.3524H4.72754V1.95245L9.6915 1.95241ZM30.8094 1.95245V10.4449H31.1921L34.4447 3.46162C35.0761 2.07193 36.4218 1.95245 36.4218 1.95245H41.0637V16.3524H36.1667V7.85999H35.784L32.5952 14.8433C31.9638 16.2267 30.5543 16.3524 30.5543 16.3524H25.9125V1.95245H30.8094ZM57.9898 8.79543C57.3067 10.6994 55.1616 12.0629 52.7866 12.0629H47.6512V16.3524H42.9945V8.79543H57.9898Z" fill="#0F754E"/>
<path fill-rule="evenodd" clip-rule="evenodd" d="M53.0112 1.95239H42.7502C42.9944 5.15832 45.8013 7.9028 48.707 7.9028H58.3133C58.8677 5.2383 56.9593 1.95239 53.0112 1.95239Z" fill="url(#paint0_linear_69_276)"/>
<defs>
<linearGradient id="paint0_linear_69_276" x1="58.4075" y1="5.69546" x2="42.7502" y2="5.69546" gradientUnits="userSpaceOnUse">
<stop stop-color="#1F5CD7"/>
<stop offset="1" stop-color="#02AEFF"/>
</linearGradient>
</defs>
</svg>
