<svg width="10" height="16" viewBox="0 0 10 16" fill="none" xmlns="http://www.w3.org/2000/svg">
<path d="M6.66949 11.6275C7.51972 11.4328 8.33119 11.0966 9.06999 10.633C9.33045 10.4572 9.51231 10.187 9.57709 9.87951C9.64187 9.57203 9.58449 9.25141 9.4171 8.98548C9.24971 8.71955 8.98543 8.52917 8.68017 8.45461C8.37492 8.38006 8.05263 8.42718 7.78149 8.586C6.9473 9.10677 5.98365 9.38287 5.00024 9.38287C4.01684 9.38287 3.05319 9.10677 2.21899 8.586C1.94818 8.41526 1.62074 8.35881 1.30838 8.429C0.996029 8.49919 0.724223 8.69031 0.552494 8.9605V8.963C0.46765 9.09717 0.410119 9.24677 0.383198 9.40322C0.356277 9.55967 0.360495 9.71989 0.395611 9.8747C0.430726 10.0295 0.496049 10.1759 0.587834 10.3054C0.67962 10.4349 0.796065 10.5451 0.930494 10.6295L0.932494 10.632C1.66939 11.0957 2.47952 11.4313 3.32849 11.6245L1.01849 13.934C0.792314 14.156 0.663402 14.4586 0.660028 14.7755C0.656654 15.0924 0.779092 15.3977 1.00049 15.6245L1.02099 15.645C1.25049 15.8815 1.56049 15.999 1.87049 15.999C2.18049 15.999 2.48999 15.8815 2.71899 15.645L5.00049 13.3765L7.26849 15.648C7.75049 16.1085 8.51599 16.098 8.97999 15.6165C9.19775 15.3911 9.31946 15.0899 9.31946 14.7765C9.31946 14.4631 9.19775 14.1619 8.97999 13.9365L6.66949 11.6275ZM4.99999 8.258C6.09479 8.25734 7.14458 7.82228 7.91891 7.04833C8.69323 6.27438 9.1288 5.22479 9.12999 4.13C9.12999 1.854 7.27599 0 4.99999 0C2.72399 0 0.869994 1.854 0.869994 4.13C0.871185 5.22502 1.30667 6.27487 2.08093 7.04921C2.85518 7.82356 3.90497 8.25918 4.99999 8.2605V8.258ZM4.99999 2.422C5.4529 2.42226 5.88719 2.6023 6.20744 2.92255C6.52769 3.24281 6.70773 3.67709 6.70799 4.13C6.70786 4.58327 6.52798 5.01799 6.2078 5.33883C5.88762 5.65967 5.45326 5.84044 4.99999 5.8415C4.54653 5.84031 4.112 5.65958 3.79145 5.33884C3.4709 5.0181 3.29042 4.58346 3.28949 4.13C3.29108 3.67683 3.4718 3.24268 3.79223 2.92224C4.11267 2.6018 4.54683 2.42108 4.99999 2.4195V2.422Z" fill="#292929"/>
</svg>
