<svg width="44" height="14" viewBox="0 0 44 14" fill="none" xmlns="http://www.w3.org/2000/svg">
<path d="M22.7557 4.45783C22.7306 6.40028 24.5197 7.48419 25.8674 8.12869C27.252 8.7899 27.7171 9.21395 27.7116 9.80532C27.7013 10.7103 26.6071 11.1097 25.5833 11.1252C23.797 11.1524 22.7583 10.6519 21.9326 10.2734L21.2891 13.2284C22.1176 13.603 23.6515 13.9298 25.2423 13.9441C28.9762 13.9441 31.4191 12.1352 31.4323 9.33067C31.4469 5.7713 26.4156 5.57428 26.45 3.98334C26.4619 3.50093 26.9309 2.98614 27.9587 2.85525C28.4675 2.78913 29.8719 2.73853 31.4641 3.45809L32.0891 0.599055C31.2328 0.293079 30.1323 9.15527e-05 28.7621 9.15527e-05C25.2476 9.15527e-05 22.7757 1.83358 22.7557 4.45783ZM38.094 0.246356C37.4122 0.246356 36.8376 0.636669 36.5812 1.23563L31.2474 13.7341H34.9786L35.7211 11.7203H40.2806L40.7113 13.7341H44L41.1302 0.246356H38.094ZM38.616 3.8899L39.6928 8.95469H36.7438L38.616 3.8899ZM18.2318 0.246525L15.2907 13.7339H18.8463L21.786 0.246187H18.2318V0.246525ZM12.9719 0.246187L9.27111 9.42665L7.77408 1.62089C7.59842 0.749513 6.90473 0.246356 6.13439 0.246356H0.0847344L0 0.638019C1.24197 0.9025 2.65306 1.32908 3.50797 1.78551C4.03116 2.06433 4.18034 2.30807 4.35222 2.97062L7.18764 13.7341H10.945L16.7056 0.246356H12.9719" fill="url(#paint0_linear_69_270)"/>
<defs>
<linearGradient id="paint0_linear_69_270" x1="20.2286" y1="14.2238" x2="20.6247" y2="-0.0973034" gradientUnits="userSpaceOnUse">
<stop stop-color="#222357"/>
<stop offset="1" stop-color="#254AA5"/>
</linearGradient>
</defs>
</svg>
