<svg width="70" height="50" viewBox="0 0 70 50" fill="none" xmlns="http://www.w3.org/2000/svg">
<g clip-path="url(#clip0_69_165)">
<path d="M68.4539 7.79861C68.0524 6.29127 67.2691 4.91707 66.1822 3.81286C65.0953 2.70864 63.7426 1.91295 62.2589 1.505C56.8268 0 34.9643 0 34.9643 0C34.9643 0 13.1008 0.0455554 7.6687 1.55056C6.18489 1.95853 4.83218 2.75427 3.74526 3.85853C2.65835 4.96279 1.87516 6.33705 1.4737 7.84445C-0.169388 17.6494 -0.806771 32.59 1.51881 42.0028C1.92032 43.5101 2.70353 44.8843 3.79044 45.9885C4.87735 47.0928 6.23004 47.8884 7.71382 48.2964C13.1459 49.8014 35.0089 49.8014 35.0089 49.8014C35.0089 49.8014 56.8716 49.8014 62.3034 48.2964C63.7873 47.8885 65.14 47.0928 66.227 45.9886C67.3139 44.8844 68.0972 43.5102 68.4987 42.0028C70.2318 32.1839 70.7658 17.2528 68.4539 7.79889V7.79861Z" fill="#FF0000"/>
<path d="M28.0055 35.5721L46.1423 24.9004L28.0058 14.2288L28.0055 35.5721Z" fill="white"/>
</g>
<defs>
<clipPath id="clip0_69_165">
<rect width="70" height="50" fill="white"/>
</clipPath>
</defs>
</svg>
